# xmcd
#
# Track frame offsets: 
#        150
#        13725
#        28043
#        49414
#        72900
#        94296
#        109452
#        126234
#        150909
#        172625
#        189002
#        207807
#        220727
#        236671
#        257449
#        278377
#        296304
#        309644
#        322700
#
# Disc length: 4519 seconds
#
# Revision: 2
# Processed by: cddbd v1.5.2PL0 Copyright (c) Steve Scherf et al.
# Submitted via: ExactAudioCopy v0.90b4
#
DISCID=f911a513
DTITLE=John Denver - The Ultimate Collection
DYEAR=2011
DGENRE=Country
TTITLE0=Annie's Song
TTITLE1=Take Me Home, Country Roads
TTITLE2=Rocky Mountain High
TTITLE3=Sunshine On My Shoulders
TTITLE4=Back Home Again
TTITLE5=Thank God I'm A Country Boy
TTITLE6=Like A Sad Song
TTITLE7=Sweet Surrender
TTITLE8=My Sweet Lady
TTITLE9=Calypso
TTITLE10=Fly Away
TTITLE11=This Old Guitar
TTITLE12=I'm Sorry
TTITLE13=The Cowboy And The Lady
TTITLE14=Mr. Bojangles
TTITLE15=Some Days Are Diamonds (Some Days Are Stone)
TTITLE16=Perhaps Love (With Placido Domingo)
TTITLE17=Follow Me
TTITLE18=Leaving On A Jet Plane
EXTD=
EXTT0=
EXTT1=
EXTT2=
EXTT3=
EXTT4=
EXTT5=
EXTT6=
EXTT7=
EXTT8=
EXTT9=
EXTT10=
EXTT11=
EXTT12=
EXTT13=
EXTT14=
EXTT15=
EXTT16=
EXTT17=
EXTT18=
PLAYORDER=
